<svg xmlns="http://www.w3.org/2000/svg" viewBox="0 0 256 256" width="50" height="50"><path d="M128 10.24C63.073 10.24 10.24 63.073 10.24 128S63.073 245.76 128 245.76 245.76 192.927 245.76 128 192.927 10.24 128 10.24zm44.595 155.085c1.997 1.997 1.997 5.273 0 7.27-1.024.973-2.304 1.485-3.635 1.485s-2.611-.512-3.635-1.485L128 135.27l-37.325 37.325c-1.024.973-2.304 1.485-3.635 1.485s-2.611-.512-3.635-1.485c-1.997-1.997-1.997-5.273 0-7.27L120.73 128 83.405 90.675c-1.997-1.997-1.997-5.273 0-7.27 1.997-1.997 5.273-1.997 7.27 0L128 120.73l37.325-37.325c1.997-1.997 5.273-1.997 7.27 0 1.997 1.997 1.997 5.273 0 7.27L135.27 128z" fill="#f30d0d" font-family="none" font-weight="none" font-size="none" text-anchor="none"/></svg>