<svg width="22" height="20" fill="none" xmlns="http://www.w3.org/2000/svg"><path d="M11.312 11.5a1.5 1.5 0 110-3 1.5 1.5 0 010 3zm-.528 2.994c.175.21.35.414.527.609.178-.195.354-.398.528-.609-.351.008-.704.008-1.056 0zm-1.995-.125a20.743 20.743 0 01-2.285-.368c-.075.35-.132.69-.17 1.016-.19 1.583.075 2.545.478 2.777.403.233 1.368-.019 2.645-.974.263-.197.528-.416.793-.655a20.48 20.48 0 01-1.461-1.796zm7.33-.368a20.17 20.17 0 01-2.284.368 20.681 20.681 0 01-1.463 1.796c.267.24.531.458.794.655 1.277.955 2.242 1.207 2.646.974.403-.232.667-1.194.479-2.777-.042-.341-.099-.68-.17-1.016h-.002zm1.45-.387c.578 2.639.274 4.74-1.008 5.48-1.281.74-3.252-.048-5.25-1.867-1.996 1.819-3.967 2.606-5.25 1.866-1.281-.74-1.584-2.84-1.008-5.48C2.479 12.794.812 11.48.812 10s1.667-2.793 4.24-3.614c-.575-2.639-.272-4.74 1.01-5.48 1.282-.74 3.253.048 5.25 1.867C13.309.954 15.28.167 16.562.907c1.281.74 1.584 2.84 1.008 5.48 2.575.819 4.241 2.133 4.241 3.613s-1.666 2.793-4.24 3.614h-.002zm-7.32-9.779c-.254-.23-.518-.449-.792-.655-1.277-.955-2.242-1.207-2.645-.974-.403.232-.667 1.194-.48 2.777.04.327.097.666.17 1.016a20.681 20.681 0 012.287-.368c.475-.653.965-1.254 1.462-1.796h-.002zm3.585 1.796c.803.084 1.569.209 2.285.368.076-.35.133-.69.17-1.016.19-1.583-.075-2.545-.478-2.777-.402-.233-1.367.019-2.645.974-.274.206-.539.425-.793.655.497.542.987 1.143 1.462 1.796zm-1.995-.125c-.175-.21-.35-.414-.527-.609-.178.195-.353.398-.528.609.351-.007.704-.007 1.055 0zm-4.155 7.198c-.183-.3-.359-.606-.528-.914-.095.257-.183.51-.263.761.257.056.52.107.79.153zm1.932.234a22.86 22.86 0 003.392 0A22.901 22.901 0 0014.704 10a22.897 22.897 0 00-1.697-2.938 22.898 22.898 0 00-3.391 0A22.898 22.898 0 007.92 10a22.902 22.902 0 001.696 2.938zm5.851-4.728c.095-.257.183-.51.263-.761a17.942 17.942 0 00-.79-.153c.183.3.358.606.527.914zM5.442 7.837c-.34.11-.662.23-.964.36C3.013 8.825 2.312 9.535 2.312 10c0 .465.7 1.175 2.166 1.803.302.13.624.25.964.36.222-.7.497-1.426.825-2.163a20.68 20.68 0 01-.825-2.163zm1.45-.388c.08.25.169.504.264.76.17-.308.345-.612.528-.913-.27.046-.534.097-.791.153h-.001zm10.29 4.714c.34-.11.662-.23.963-.36 1.465-.628 2.166-1.338 2.166-1.803 0-.465-.7-1.175-2.166-1.803a11.358 11.358 0 00-.963-.36A21.04 21.04 0 0116.357 10c.328.737.602 1.462.825 2.163zm-1.45.388a19.17 19.17 0 00-.264-.76c-.17.308-.346.612-.528.913.27-.046.534-.097.79-.153h.002z" fill="#607B96"/></svg>