<svg width="28" height="29" fill="none" xmlns="http://www.w3.org/2000/svg"><rect y=".255" width="28" height="28" rx="2" fill="#86E1F9"/><g clip-path="url(#clip0_33_123)"><path d="M14 15.533a1.277 1.277 0 110-2.555 1.277 1.277 0 010 2.555zm-.45 2.55c.15.179.3.352.45.518.15-.166.3-.339.45-.518-.3.006-.6.006-.9 0zm-1.699-.107a17.604 17.604 0 01-1.946-.313 9.258 9.258 0 00-.145.865c-.162 1.349.064 2.168.407 2.366.343.198 1.165-.017 2.253-.83a9.87 9.87 0 00.676-.558 17.57 17.57 0 01-1.245-1.53zm6.244-.313c-.61.136-1.263.242-1.946.313a17.64 17.64 0 01-1.245 1.53c.226.204.452.39.676.558 1.088.813 1.91 1.028 2.253.83.343-.198.568-1.017.408-2.366a9.7 9.7 0 00-.145-.865zm1.235-.33c.492 2.248.234 4.037-.858 4.668-1.092.63-2.771-.041-4.472-1.59-1.701 1.549-3.38 2.22-4.472 1.589-1.092-.63-1.35-2.42-.86-4.668-2.191-.697-3.611-1.816-3.611-3.077 0-1.26 1.42-2.379 3.612-3.078-.49-2.248-.233-4.037.86-4.668 1.091-.63 2.77.041 4.471 1.59 1.7-1.549 3.38-2.22 4.472-1.589 1.091.63 1.35 2.42.859 4.668 2.192.697 3.612 1.816 3.612 3.077 0 1.26-1.42 2.379-3.612 3.078zm-6.235-8.329a9.687 9.687 0 00-.675-.558c-1.088-.813-1.91-1.028-2.253-.83-.343.198-.568 1.018-.408 2.366.034.278.082.567.145.865.643-.14 1.293-.245 1.947-.313a17.7 17.7 0 011.245-1.53zm3.054 1.53c.683.071 1.335.178 1.946.313a9.13 9.13 0 00.145-.865c.162-1.348-.064-2.168-.407-2.365-.343-.199-1.165.016-2.253.83-.234.175-.46.361-.676.557.423.462.84.974 1.245 1.53zm-1.7-.107A14.53 14.53 0 0014 9.909c-.15.166-.3.339-.45.518.3-.006.6-.006.9 0zm-3.54 6.131a21.176 21.176 0 01-.449-.778c-.08.219-.156.434-.224.648.219.047.444.09.673.13zm1.646.2c.962.07 1.928.07 2.89 0a19.493 19.493 0 001.444-2.503 19.5 19.5 0 00-1.444-2.502 19.51 19.51 0 00-2.89 0 19.5 19.5 0 00-1.444 2.502c.419.869.902 1.705 1.444 2.502zm4.985-4.028c.08-.219.156-.434.224-.648a15.357 15.357 0 00-.673-.13c.155.256.305.516.449.778zM9 12.413a9.4 9.4 0 00-.82.306c-1.249.535-1.846 1.14-1.846 1.536 0 .396.597 1 1.845 1.536a9.4 9.4 0 00.821.306c.19-.596.424-1.214.703-1.842-.269-.6-.503-1.216-.703-1.842zm1.235-.33c.07.212.144.428.225.646.144-.262.294-.521.45-.777-.23.04-.455.082-.674.13zM19 16.096c.29-.093.564-.196.82-.306 1.249-.535 1.846-1.14 1.846-1.536 0-.396-.597-1-1.845-1.536a9.686 9.686 0 00-.821-.306c-.19.596-.424 1.214-.703 1.842.28.628.514 1.245.703 1.842zm-1.235.33c-.07-.212-.144-.428-.225-.646a21.22 21.22 0 01-.45.777c.23-.04.455-.082.674-.13z" fill="#011221"/></g><defs><clipPath id="clip0_33_123"><path fill="#fff" transform="translate(3.78 4.034)" d="M0 0h20.442v20.442H0z"/></clipPath></defs></svg>